<?xml version="1.0" ?><svg id="Layer_1" style="enable-background:new 0 0 595.3 595.3;" version="1.1" viewBox="0 0 595.3 595.3" xml:space="preserve" xmlns="http://www.w3.org/2000/svg" xmlns:xlink="http://www.w3.org/1999/xlink"><style type="text/css">
	.st0{fill:#58595B;}
	.st1{fill:#3A1811;}
	.st2{fill:#726658;}
	.st3{fill:#0DB4E7;}
	.st4{fill:#009DD4;}
	.st5{fill:#009444;}
	.st6{fill:#FBB040;}
	.st7{fill:#EFF8F5;}
	.st8{fill:#D81F26;}
	.st9{fill:#BCBEC0;}
	.st10{fill:#735032;}
	.st11{fill:#1C75BC;}
	.st12{fill:#FFD128;}
	.st13{fill:#D1AE23;}
	.st14{fill:#F9ED32;}
	.st15{fill:#939598;}
	.st16{fill:#9B8579;}
	.st17{fill:#F1B279;}
	.st18{fill:#603913;}
	.st19{fill:#754C29;}
	.st20{fill:#8B5E3C;}
	.st21{fill:#C49A6C;}
	.st22{fill:#F7941E;}
	.st23{fill:#00AEEF;}
	.st24{fill:#FAF5AE;}
	.st25{fill:#F5F7D5;}
	.st26{fill:#7ABE90;}
	.st27{fill:#BFA863;}
	.st28{fill:#2B3990;}
	.st29{fill:#EF3824;}
	.st30{fill:#BE1E2D;}
	.st31{fill:#A67A44;}
	.st32{fill:#00A388;}
	.st33{fill:#ABE0F1;}
	.st34{fill:#594A42;}
</style><g><g><g><g><path class="st21" d="M202.1,144.1c0,0-40.6,34.8-56.5,39.5c-15.9,4.7-1.4,38,13,38c14.5,0,0,7.9,5.8,12.6      c5.8,4.7,14.1,6.7,19.6-9.3c5.4-16,43.5-19.6,43.5-19.6s34.8,27.3,57.6-4.7c22.8-32,34.8,14.2,16.3,28.5      c0,0-85.6,33.6-90.4,92.1c-4.7,58.5,36.4,63.3,38,77.5c0.8,7-6.8,12.8-14.8,17c-3.3,1.7-2.1,6.7,1.7,6.7h141.7      c3.5,0,5-4.6,2-6.6c-7.1-4.7-14.7-11.3-14.7-18.4c0-11.7,25.7-18.5,33.2-24.4c29.3-23.2,37.8-68.1,41.3-102.6      c4.3-42.9-7.3-88.7-29-126.4c-42.7-74.3-98-80.6-113.9-80.6c-14.8,0-50.2,2.8-69,18.5c-1.8,1.5-1.3,4.3,0.9,5      c5.3,1.9,13.3,5.4,12.8,9.6C240.3,103,198.7,106.9,202.1,144.1z"/><path class="st1" d="M377.5,427.4H235.8c-4,0-7.4-2.6-8.3-6.6c-1-3.9,0.8-7.8,4.4-9.6c8-4.1,12.5-8.6,12.1-12      c-0.3-2.4-4.3-5.7-8.7-9.2c-12.3-9.9-32.8-26.4-29.3-69.3c2.1-25.4,19-50.2,49-71.7c20.2-14.5,39.7-22.8,43.8-24.4      c6.2-5.2,7.7-15.6,6-23c-0.9-3.9-2.7-6.8-4.6-7.1c-2-0.4-6,1.7-11.1,8.9c-7.1,10-16,15.8-26.5,17.3      c-16.5,2.4-31.6-6.8-36.6-10.3c-13.6,1.6-34.3,7-37.4,16c-3,8.8-7.3,14-12.8,15.6c-4.7,1.3-9.8,0-14.6-4      c-4.6-3.8-3.3-8.7-2.2-11.5c-0.2,0-0.3,0-0.5,0c-5.8,0-11.7-3.5-16.6-9.8c-4.2-5.3-7.2-12.2-8.1-18.4      c-1.4-9.9,2.4-17.2,10.2-19.5c11.6-3.5,40.4-26.4,52.8-36.9c-1.2-28.2,21.3-38.6,33.6-44.2c1.4-0.7,3.1-1.4,4.3-2.1      c-1.4-1-3.9-2.4-8.2-3.9c-2.7-1-4.6-3.2-5.2-6c-0.5-2.8,0.5-5.7,2.7-7.6c22.3-18.8,64.1-19.7,72.2-19.7c7.2,0,26.3,1.3,49.1,13      c27.1,13.9,50.3,37.5,69.1,70.1c23.1,40.2,33.9,87.3,29.6,129.4c-3.4,33.5-11.5,81-43.1,106c-2.8,2.2-7,4.2-11.9,6.5      c-7.2,3.4-19.4,9.1-19.4,14c0,3.8,4.6,8.9,12.5,14.2c3.2,2.1,4.6,5.9,3.5,9.6C384.6,424.9,381.3,427.4,377.5,427.4z       M241.2,417.4H373c-8.8-6.6-13.2-13.3-13.2-19.9c0-11.2,13.9-17.8,25.1-23.1c4.2-2,8.1-3.8,10-5.3      c28.6-22.7,36.2-67.4,39.4-99.2c4-40-6.3-85-28.3-123.4c-17.8-30.9-39.6-53.2-65-66.2c-20.9-10.7-38.1-11.9-44.6-11.9      c-4.4,0-42,0.4-62.9,15.2c5.4,2.2,13.4,6.5,12.5,13.6c-0.6,4.5-5.1,6.6-11.3,9.5c-11.8,5.5-29.7,13.7-27.6,36.9l0.2,2.6l-2,1.7      c-4.2,3.6-41.9,35.6-58.4,40.5c-2.8,0.8-3.9,3.7-3.2,8.5c1.4,9.4,9.1,19.7,14.8,19.7c4,0,8.5,0.5,10.6,3.9      c2.1,3.4,0.5,6.9-0.5,8.9c-0.2,0.4-0.4,0.9-0.6,1.4c1.3,1,3.4,2.2,5,1.7c1-0.3,3.6-1.8,6.1-9.2c2.8-8.3,12-14.7,27.2-19      c10.5-3,20.2-3.9,20.6-3.9l2-0.2l1.6,1.2c0.1,0.1,15.3,11.7,30.8,9.5c7.6-1.1,14.3-5.6,19.7-13.2c7.1-9.9,14.2-14.3,21.1-12.9      c5.9,1.2,10.4,6.5,12.4,14.6c2.6,10.9-0.1,25.9-10.1,33.6l-0.6,0.4l-0.7,0.3c-0.2,0.1-21.2,8.4-42.5,23.6      c-19.1,13.7-42.4,36-44.7,64.2c-3,37.5,13.5,50.9,25.6,60.7c6.2,5,11.6,9.4,12.3,15.9C254.7,405.1,250.4,411.6,241.2,417.4z"/></g></g></g><g><g><g><path class="st2" d="M398.5,505.7h-181V430c0-4.2,3.4-7.6,7.6-7.6h165.8c4.2,0,7.6,3.4,7.6,7.6V505.7z"/><path class="st1" d="M403.5,510.7h-191V430c0-6.9,5.6-12.6,12.6-12.6h165.8c6.9,0,12.6,5.6,12.6,12.6V510.7z M222.5,500.7h171      V430c0-1.4-1.2-2.6-2.6-2.6H225.1c-1.4,0-2.6,1.2-2.6,2.6V500.7z"/></g></g></g><g><g><g><rect class="st34" height="41.6" width="304" x="156" y="505.7"/><path class="st1" d="M465,552.3H151v-51.6h314V552.3z M161,542.3h294v-31.6H161V542.3z"/></g></g></g><g><g><g><path class="st2" d="M296.4,63.4c-14.8,0-50.2,2.8-69,18.5c-1.8,1.5-1.3,4.3,0.9,5c5.3,1.9,13.3,5.4,12.8,9.6      c5.1,0,11.5-3.1,16.5-4c13.5-2.4,27.6-4,41.1-1.3c51.9,10.4,72.4,47.1,90.9,86.1c18.8,39.6,25.7,82.7,19.9,126.2      c-3.3,25.3-10.4,50-19.4,73.8c3.3-1.6,6.1-3,7.9-4.4c29.3-23.2,37.8-68.1,41.3-102.6c4.3-42.8-7.3-88.7-29-126.4      C367.5,69.8,312.2,63.4,296.4,63.4z"/><path class="st1" d="M381,387.4l4.4-11.7c9.8-25.9,16.1-49.6,19.1-72.7c5.6-42.2-1.1-84.8-19.4-123.4      c-18.9-39.8-38.6-73.6-87.4-83.4c-13.2-2.7-27.2-0.8-39.2,1.3c-1.7,0.3-3.7,0.9-5.9,1.6c-3.8,1.2-7.7,2.4-11.5,2.4h-5.7l0.6-5      c-0.7-0.8-3.2-2.7-9.4-4.9c-2.7-1-4.6-3.2-5.2-6c-0.5-2.8,0.5-5.7,2.7-7.6c22.3-18.8,64.1-19.7,72.2-19.7      c7.2,0,26.3,1.3,49.1,13c27.1,13.9,50.3,37.5,69.1,70.1c23.1,40.2,33.9,87.3,29.6,129.4c-3.4,33.5-11.5,81-43.1,106      c-2.1,1.7-5,3.2-8.8,5L381,387.4z M283.4,85c5.4,0,10.8,0.4,16.2,1.5c53.3,10.7,75.1,48.2,94.5,88.9      c19.1,40.3,26.2,84.9,20.3,129c-2.6,19.4-7.3,39.2-14.4,60.2c24.4-23.7,31.2-64.9,34.2-94.6c4-40-6.3-85-28.3-123.4      c-17.8-30.9-39.6-53.2-65-66.2c-20.9-10.7-38.1-11.9-44.6-11.9c-4.4,0-42,0.4-62.9,15.2c3.7,1.5,8.5,3.9,11,7.5      c1.6-0.4,3.4-0.9,5.1-1.5c2.4-0.8,4.8-1.5,7.2-1.9C264.9,86.3,274,85,283.4,85z M236.2,96.8L236.2,96.8L236.2,96.8z"/></g></g></g><g><g><g><path class="st2" d="M263.7,91.6c0,0-0.7-21.7-8-33.6c-1.1-1.7,0.4-4,2.4-3.8c10.2,1,32.6,6.9,47.6,38.8      C325.6,135.4,265.3,105.5,263.7,91.6z"/><path class="st1" d="M301.1,119.9c-2.8,0-6.1-0.5-10.1-1.8c-12.7-4-31.1-15.8-32.2-25.9l0-0.4c0-0.2-0.8-20.6-7.3-31.2      c-1.5-2.4-1.5-5.4,0-7.9c1.5-2.4,4.2-3.8,7.1-3.5c5.8,0.6,14.7,2.5,24.2,8.6c11.3,7.2,20.5,18.3,27.4,33.1      c5.5,11.6,6,19.7,1.5,24.8C309.9,117.8,306.7,119.9,301.1,119.9z M268.7,91.2c0.6,3.4,12.4,13.3,25.2,17.3      c6.2,1.9,9.5,1.4,10.3,0.5c0.8-0.9,1.2-5-3.1-13.9c-11.8-25-28-32.9-38.9-35.2C267.7,72.2,268.6,88.8,268.7,91.2z"/></g></g></g><g><g><g><path class="st2" d="M225.3,138.3c-2.8-0.9-4.3-4-3.2-6.7c1.5-3.6,4.8-8,11.8-8.9c4.1-0.5,7.3-0.4,9.5-0.1      c3.5,0.6,5.4,4.4,3.6,7.4C244,135.2,237.4,142,225.3,138.3z"/><path class="st1" d="M232,141.8c-2.2,0-4.7-0.4-7.4-1.2l0,0c-2-0.6-3.7-2.1-4.6-4c-0.9-1.9-0.9-4.1-0.1-6      c1.7-4.2,5.5-9.3,13.7-10.4c3.9-0.5,7.3-0.5,10.3-0.1c2.5,0.4,4.6,2,5.7,4.3c1,2.2,0.9,4.8-0.4,6.9      C246.6,135.7,241.3,141.8,232,141.8z M226,135.9c10.2,3.1,15.9-2.1,18.9-7.1c0.6-0.9,0.3-1.8,0.1-2.2c-0.4-0.8-1.1-1.3-1.9-1.5      c-2.4-0.4-5.4-0.4-8.8,0.1c-4.7,0.6-8,3.1-9.8,7.4c-0.3,0.6-0.3,1.3,0,2C224.8,135.2,225.4,135.7,226,135.9L226,135.9z"/></g></g></g><g><path class="st1" d="M155.5,195.5c-0.9,0-1.7-0.5-2.2-1.3c-0.7-1.2-0.3-2.7,0.9-3.4l9.5-5.4c1.2-0.7,2.7-0.3,3.4,0.9    s0.3,2.7-0.9,3.4l-9.5,5.4C156.3,195.4,155.9,195.5,155.5,195.5z"/></g><g><path class="st1" d="M428.5,258.7c-1.3,0-2.4-1-2.5-2.4c-3-61.2-25.8-102.5-44.4-126.4c-20.1-25.8-39.5-37.3-39.7-37.4    c-1.2-0.7-1.6-2.2-0.9-3.4c0.7-1.2,2.2-1.6,3.4-0.9c0.8,0.5,20.5,12.1,41.2,38.7c19,24.5,42.3,66.7,45.4,129.2    c0.1,1.4-1,2.6-2.4,2.6C428.6,258.7,428.5,258.7,428.5,258.7z"/></g><g><path class="st1" d="M296.6,102.5c-1.1,0-2-0.7-2.4-1.7c-5-15.4-21.2-26.7-21.4-26.8c-1.1-0.8-1.4-2.3-0.6-3.5    c0.8-1.1,2.3-1.4,3.5-0.6c0.7,0.5,17.8,12.4,23.3,29.4c0.4,1.3-0.3,2.7-1.6,3.1C297.1,102.5,296.9,102.5,296.6,102.5z"/></g><g><path class="st1" d="M392,226c-1.1,0-2.1-0.7-2.4-1.8c-22-74.4-57.5-102-57.9-102.3c-1.1-0.8-1.3-2.4-0.5-3.5    c0.8-1.1,2.4-1.3,3.5-0.5c1.5,1.1,37.1,28.7,59.7,104.9c0.4,1.3-0.4,2.7-1.7,3.1C392.5,225.9,392.2,226,392,226z"/></g><g><path class="st1" d="M385.8,343.4c-0.3,0-0.5,0-0.8-0.1c-1.3-0.4-2-1.8-1.6-3.2c13.6-41.3,9.9-79.5,9.8-79.9    c-0.1-1.4,0.9-2.6,2.2-2.7c1.4-0.2,2.6,0.9,2.7,2.2c0,0.4,3.9,39.7-10,82C387.8,342.7,386.9,343.4,385.8,343.4z"/></g><g><path class="st1" d="M350.5,411.8h-67.6c-1.4,0-2.5-1.1-2.5-2.5s1.1-2.5,2.5-2.5h67.6c1.4,0,2.5,1.1,2.5,2.5    S351.9,411.8,350.5,411.8z"/></g><g><path class="st1" d="M350.9,397.2c-0.1,0-0.2,0-0.3,0c-1.4-0.2-2.3-1.5-2.1-2.8c2.3-16.7,23.6-26.5,24.5-26.9    c1.3-0.6,2.7,0,3.3,1.3c0.6,1.3,0,2.7-1.3,3.3c-0.2,0.1-19.7,9-21.6,23C353.2,396.3,352.2,397.2,350.9,397.2z"/></g><g><path class="st1" d="M385.8,436.5H308c-1.4,0-2.5-1.1-2.5-2.5s1.1-2.5,2.5-2.5h77.8c1.4,0,2.5,1.1,2.5,2.5    S387.2,436.5,385.8,436.5z"/></g><g><path class="st1" d="M382.6,495.6H244.2c-1.4,0-2.5-1.1-2.5-2.5s1.1-2.5,2.5-2.5h138.4c0.4,0,0.7-0.3,0.7-0.7v-34    c0-1.4,1.1-2.5,2.5-2.5s2.5,1.1,2.5,2.5v34C388.3,493,385.8,495.6,382.6,495.6z"/></g><g><path class="st1" d="M448.9,519h-96.3c-1.4,0-2.5-1.1-2.5-2.5s1.1-2.5,2.5-2.5h96.3c1.4,0,2.5,1.1,2.5,2.5S450.3,519,448.9,519z"/></g><g><path class="st1" d="M447.5,538.2H219.7c-1.4,0-2.5-1.1-2.5-2.5s1.1-2.5,2.5-2.5h226.7v-7.7c0-1.4,1.1-2.5,2.5-2.5    s2.5,1.1,2.5,2.5v8.8C451.4,536.4,449.6,538.2,447.5,538.2z"/></g></g></svg>